<svg width="2257" height="2123" viewBox="0 0 2257 2123" fill="none" xmlns="http://www.w3.org/2000/svg">
<g clip-path="url(#clip0_198_49)">
<rect width="2257" height="2123" fill="white"/>
<circle cx="15.3637" cy="1884.02" r="11.3637" fill="black"/>
<circle cx="104.369" cy="1884.02" r="11.3637" fill="black"/>
<circle cx="193.374" cy="1884.02" r="11.3637" fill="black"/>
<circle cx="282.38" cy="1884.02" r="11.3637" fill="black"/>
<circle cx="371.385" cy="1884.02" r="11.3637" fill="black"/>
<circle cx="460.39" cy="1884.02" r="11.3637" fill="black"/>
<circle cx="549.395" cy="1884.02" r="11.3637" fill="black"/>
<circle cx="638.401" cy="1884.02" r="11.3637" fill="black"/>
<circle cx="727.406" cy="1884.02" r="11.3637" fill="black"/>
<circle cx="816.411" cy="1884.02" r="11.3637" fill="black"/>
<circle cx="15.3637" cy="1780.41" r="11.3637" fill="black"/>
<circle cx="104.369" cy="1780.41" r="11.3637" fill="black"/>
<circle cx="193.374" cy="1780.41" r="11.3637" fill="black"/>
<circle cx="282.38" cy="1780.41" r="11.3637" fill="black"/>
<circle cx="371.385" cy="1780.41" r="11.3637" fill="black"/>
<circle cx="460.39" cy="1780.41" r="11.3637" fill="black"/>
<circle cx="549.395" cy="1780.41" r="11.3637" fill="black"/>
<circle cx="638.401" cy="1780.41" r="11.3637" fill="black"/>
<circle cx="727.406" cy="1780.41" r="11.3637" fill="black"/>
<circle cx="816.411" cy="1780.41" r="11.3637" fill="black"/>
<circle cx="15.3637" cy="1676.8" r="11.3637" fill="black"/>
<circle cx="104.369" cy="1676.8" r="11.3637" fill="black"/>
<circle cx="193.374" cy="1676.8" r="11.3637" fill="black"/>
<circle cx="282.38" cy="1676.8" r="11.3637" fill="black"/>
<circle cx="371.385" cy="1676.8" r="11.3637" fill="black"/>
<circle cx="460.39" cy="1676.8" r="11.3637" fill="black"/>
<circle cx="549.395" cy="1676.8" r="11.3637" fill="black"/>
<circle cx="638.401" cy="1676.8" r="11.3637" fill="black"/>
<circle cx="727.406" cy="1676.8" r="11.3637" fill="black"/>
<circle cx="816.411" cy="1676.8" r="11.3637" fill="black"/>
<circle cx="15.3637" cy="1987.62" r="11.3637" fill="black"/>
<circle cx="104.369" cy="1987.62" r="11.3637" fill="black"/>
<circle cx="193.374" cy="1987.62" r="11.3637" fill="black"/>
<circle cx="282.38" cy="1987.62" r="11.3637" fill="black"/>
<circle cx="371.385" cy="1987.62" r="11.3637" fill="black"/>
<circle cx="460.39" cy="1987.62" r="11.3637" fill="black"/>
<circle cx="549.395" cy="1987.62" r="11.3637" fill="black"/>
<circle cx="638.401" cy="1987.62" r="11.3637" fill="black"/>
<circle cx="727.406" cy="1987.62" r="11.3637" fill="black"/>
<circle cx="816.411" cy="1987.62" r="11.3637" fill="black"/>
<circle cx="15.3637" cy="2091.23" r="11.3637" fill="black"/>
<circle cx="104.369" cy="2091.23" r="11.3637" fill="black"/>
<circle cx="193.374" cy="2091.23" r="11.3637" fill="black"/>
<circle cx="282.38" cy="2091.23" r="11.3637" fill="black"/>
<circle cx="371.385" cy="2091.23" r="11.3637" fill="black"/>
<circle cx="460.39" cy="2091.23" r="11.3637" fill="black"/>
<circle cx="549.395" cy="2091.23" r="11.3637" fill="black"/>
<circle cx="638.401" cy="2091.23" r="11.3637" fill="black"/>
<circle cx="727.406" cy="2091.23" r="11.3637" fill="black"/>
<circle cx="816.411" cy="2091.23" r="11.3637" fill="black"/>
<circle cx="15.3637" cy="1365.98" r="11.3637" fill="black"/>
<circle cx="104.369" cy="1365.98" r="11.3637" fill="black"/>
<circle cx="193.374" cy="1365.98" r="11.3637" fill="black"/>
<circle cx="282.38" cy="1365.98" r="11.3637" fill="black"/>
<circle cx="371.385" cy="1365.98" r="11.3637" fill="black"/>
<circle cx="460.39" cy="1365.98" r="11.3637" fill="black"/>
<circle cx="549.395" cy="1365.98" r="11.3637" fill="black"/>
<circle cx="638.401" cy="1365.98" r="11.3637" fill="black"/>
<circle cx="727.406" cy="1365.98" r="11.3637" fill="black"/>
<circle cx="816.411" cy="1365.98" r="11.3637" fill="black"/>
<circle cx="15.3637" cy="1262.38" r="11.3637" fill="black"/>
<circle cx="104.369" cy="1262.38" r="11.3637" fill="black"/>
<circle cx="193.374" cy="1262.38" r="11.3637" fill="black"/>
<circle cx="282.38" cy="1262.38" r="11.3637" fill="black"/>
<circle cx="371.385" cy="1262.38" r="11.3637" fill="black"/>
<circle cx="460.39" cy="1262.38" r="11.3637" fill="black"/>
<circle cx="549.395" cy="1262.38" r="11.3637" fill="black"/>
<circle cx="638.401" cy="1262.38" r="11.3637" fill="black"/>
<circle cx="727.406" cy="1262.38" r="11.3637" fill="black"/>
<circle cx="816.411" cy="1262.38" r="11.3637" fill="black"/>
<circle cx="15.3637" cy="1158.77" r="11.3637" fill="black"/>
<circle cx="104.369" cy="1158.77" r="11.3637" fill="black"/>
<circle cx="193.374" cy="1158.77" r="11.3637" fill="black"/>
<circle cx="282.38" cy="1158.77" r="11.3637" fill="black"/>
<circle cx="371.385" cy="1158.77" r="11.3637" fill="black"/>
<circle cx="460.39" cy="1158.77" r="11.3637" fill="black"/>
<circle cx="549.395" cy="1158.77" r="11.3637" fill="black"/>
<circle cx="638.401" cy="1158.77" r="11.3637" fill="black"/>
<circle cx="727.406" cy="1158.77" r="11.3637" fill="black"/>
<circle cx="816.411" cy="1158.77" r="11.3637" fill="black"/>
<circle cx="15.3637" cy="1469.59" r="11.3637" fill="black"/>
<circle cx="104.369" cy="1469.59" r="11.3637" fill="black"/>
<circle cx="193.374" cy="1469.59" r="11.3637" fill="black"/>
<circle cx="282.38" cy="1469.59" r="11.3637" fill="black"/>
<circle cx="371.385" cy="1469.59" r="11.3637" fill="black"/>
<circle cx="460.39" cy="1469.59" r="11.3637" fill="black"/>
<circle cx="549.395" cy="1469.59" r="11.3637" fill="black"/>
<circle cx="638.401" cy="1469.59" r="11.3637" fill="black"/>
<circle cx="727.406" cy="1469.59" r="11.3637" fill="black"/>
<circle cx="816.411" cy="1469.59" r="11.3637" fill="black"/>
<circle cx="15.3637" cy="1573.2" r="11.3637" fill="black"/>
<circle cx="104.369" cy="1573.2" r="11.3637" fill="black"/>
<circle cx="193.374" cy="1573.2" r="11.3637" fill="black"/>
<circle cx="282.38" cy="1573.2" r="11.3637" fill="black"/>
<circle cx="371.385" cy="1573.2" r="11.3637" fill="black"/>
<circle cx="460.39" cy="1573.2" r="11.3637" fill="black"/>
<circle cx="549.395" cy="1573.2" r="11.3637" fill="black"/>
<circle cx="638.401" cy="1573.2" r="11.3637" fill="black"/>
<circle cx="727.406" cy="1573.2" r="11.3637" fill="black"/>
<circle cx="816.411" cy="1573.2" r="11.3637" fill="black"/>
<circle cx="905.416" cy="1884.02" r="11.3637" fill="black"/>
<circle cx="905.416" cy="1780.41" r="11.3637" fill="black"/>
<circle cx="905.416" cy="1676.8" r="11.3637" fill="black"/>
<circle cx="905.416" cy="1987.62" r="11.3637" fill="black"/>
<circle cx="905.416" cy="2091.23" r="11.3637" fill="black"/>
<circle cx="905.416" cy="1365.98" r="11.3637" fill="black"/>
<circle cx="905.416" cy="1262.38" r="11.3637" fill="black"/>
<circle cx="905.416" cy="1158.77" r="11.3637" fill="black"/>
<circle cx="905.416" cy="1469.59" r="11.3637" fill="black"/>
<circle cx="905.416" cy="1573.2" r="11.3637" fill="black"/>
<circle cx="994.422" cy="1884.02" r="11.3637" fill="black"/>
<circle cx="994.422" cy="1780.41" r="11.3637" fill="black"/>
<circle cx="994.422" cy="1676.8" r="11.3637" fill="black"/>
<circle cx="994.422" cy="1987.62" r="11.3637" fill="black"/>
<circle cx="994.422" cy="2091.23" r="11.3637" fill="black"/>
<circle cx="994.422" cy="1365.98" r="11.3637" fill="black"/>
<circle cx="994.422" cy="1262.38" r="11.3637" fill="black"/>
<circle cx="994.422" cy="1158.77" r="11.3637" fill="black"/>
<circle cx="994.422" cy="1469.59" r="11.3637" fill="black"/>
<circle cx="994.422" cy="1573.2" r="11.3637" fill="black"/>
<circle cx="1083.43" cy="1884.02" r="11.3637" fill="black"/>
<circle cx="1083.43" cy="1780.41" r="11.3637" fill="black"/>
<circle cx="1083.43" cy="1676.8" r="11.3637" fill="black"/>
<circle cx="1083.43" cy="1987.62" r="11.3637" fill="black"/>
<circle cx="1083.43" cy="2091.23" r="11.3637" fill="black"/>
<circle cx="1083.43" cy="1365.98" r="11.3637" fill="black"/>
<circle cx="1083.43" cy="1262.38" r="11.3637" fill="black"/>
<circle cx="1083.43" cy="1158.77" r="11.3637" fill="black"/>
<circle cx="1083.43" cy="1469.59" r="11.3637" fill="black"/>
<circle cx="1083.43" cy="1573.2" r="11.3637" fill="black"/>
<circle cx="1172.57" cy="1884.02" r="11.3637" fill="black"/>
<circle cx="1261.58" cy="1884.02" r="11.3637" fill="black"/>
<circle cx="1350.58" cy="1884.02" r="11.3637" fill="black"/>
<circle cx="1439.59" cy="1884.02" r="11.3637" fill="black"/>
<circle cx="1528.59" cy="1884.02" r="11.3637" fill="black"/>
<circle cx="1617.6" cy="1884.02" r="11.3637" fill="black"/>
<circle cx="1706.6" cy="1884.02" r="11.3637" fill="black"/>
<circle cx="1795.61" cy="1884.02" r="11.3637" fill="black"/>
<circle cx="1884.61" cy="1884.02" r="11.3637" fill="black"/>
<circle cx="1973.62" cy="1884.02" r="11.3637" fill="black"/>
<circle cx="1172.57" cy="1780.41" r="11.3637" fill="black"/>
<circle cx="1261.58" cy="1780.41" r="11.3637" fill="black"/>
<circle cx="1350.58" cy="1780.41" r="11.3637" fill="black"/>
<circle cx="1439.59" cy="1780.41" r="11.3637" fill="black"/>
<circle cx="1528.59" cy="1780.41" r="11.3637" fill="black"/>
<circle cx="1617.6" cy="1780.41" r="11.3637" fill="black"/>
<circle cx="1706.6" cy="1780.41" r="11.3637" fill="black"/>
<circle cx="1795.61" cy="1780.41" r="11.3637" fill="black"/>
<circle cx="1884.61" cy="1780.41" r="11.3637" fill="black"/>
<circle cx="1973.62" cy="1780.41" r="11.3637" fill="black"/>
<circle cx="1172.57" cy="1676.8" r="11.3637" fill="black"/>
<circle cx="1261.58" cy="1676.8" r="11.3637" fill="black"/>
<circle cx="1350.58" cy="1676.8" r="11.3637" fill="black"/>
<circle cx="1439.59" cy="1676.8" r="11.3637" fill="black"/>
<circle cx="1528.59" cy="1676.8" r="11.3637" fill="black"/>
<circle cx="1617.6" cy="1676.8" r="11.3637" fill="black"/>
<circle cx="1706.6" cy="1676.8" r="11.3637" fill="black"/>
<circle cx="1795.61" cy="1676.8" r="11.3637" fill="black"/>
<circle cx="1884.61" cy="1676.8" r="11.3637" fill="black"/>
<circle cx="1973.62" cy="1676.8" r="11.3637" fill="black"/>
<circle cx="1172.57" cy="1987.62" r="11.3637" fill="black"/>
<circle cx="1261.58" cy="1987.62" r="11.3637" fill="black"/>
<circle cx="1350.58" cy="1987.62" r="11.3637" fill="black"/>
<circle cx="1439.59" cy="1987.62" r="11.3637" fill="black"/>
<circle cx="1528.59" cy="1987.62" r="11.3637" fill="black"/>
<circle cx="1617.6" cy="1987.62" r="11.3637" fill="black"/>
<circle cx="1706.6" cy="1987.62" r="11.3637" fill="black"/>
<circle cx="1795.61" cy="1987.62" r="11.3637" fill="black"/>
<circle cx="1884.61" cy="1987.62" r="11.3637" fill="black"/>
<circle cx="1973.62" cy="1987.62" r="11.3637" fill="black"/>
<circle cx="1172.57" cy="2091.23" r="11.3637" fill="black"/>
<circle cx="1261.58" cy="2091.23" r="11.3637" fill="black"/>
<circle cx="1350.58" cy="2091.23" r="11.3637" fill="black"/>
<circle cx="1439.59" cy="2091.23" r="11.3637" fill="black"/>
<circle cx="1528.59" cy="2091.23" r="11.3637" fill="black"/>
<circle cx="1617.6" cy="2091.23" r="11.3637" fill="black"/>
<circle cx="1706.6" cy="2091.23" r="11.3637" fill="black"/>
<circle cx="1795.61" cy="2091.23" r="11.3637" fill="black"/>
<circle cx="1884.61" cy="2091.23" r="11.3637" fill="black"/>
<circle cx="1973.62" cy="2091.23" r="11.3637" fill="black"/>
<circle cx="1172.57" cy="1365.98" r="11.3637" fill="black"/>
<circle cx="1261.58" cy="1365.98" r="11.3637" fill="black"/>
<circle cx="1350.58" cy="1365.98" r="11.3637" fill="black"/>
<circle cx="1439.59" cy="1365.98" r="11.3637" fill="black"/>
<circle cx="1528.59" cy="1365.98" r="11.3637" fill="black"/>
<circle cx="1617.6" cy="1365.98" r="11.3637" fill="black"/>
<circle cx="1706.6" cy="1365.98" r="11.3637" fill="black"/>
<circle cx="1795.61" cy="1365.98" r="11.3637" fill="black"/>
<circle cx="1884.61" cy="1365.98" r="11.3637" fill="black"/>
<circle cx="1973.62" cy="1365.98" r="11.3637" fill="black"/>
<circle cx="1172.57" cy="1262.38" r="11.3637" fill="black"/>
<circle cx="1261.58" cy="1262.38" r="11.3637" fill="black"/>
<circle cx="1350.58" cy="1262.38" r="11.3637" fill="black"/>
<circle cx="1439.59" cy="1262.38" r="11.3637" fill="black"/>
<circle cx="1528.59" cy="1262.38" r="11.3637" fill="black"/>
<circle cx="1617.6" cy="1262.38" r="11.3637" fill="black"/>
<circle cx="1706.6" cy="1262.38" r="11.3637" fill="black"/>
<circle cx="1795.61" cy="1262.38" r="11.3637" fill="black"/>
<circle cx="1884.61" cy="1262.38" r="11.3637" fill="black"/>
<circle cx="1973.62" cy="1262.38" r="11.3637" fill="black"/>
<circle cx="1172.57" cy="1158.77" r="11.3637" fill="black"/>
<circle cx="1261.58" cy="1158.77" r="11.3637" fill="black"/>
<circle cx="1350.58" cy="1158.77" r="11.3637" fill="black"/>
<circle cx="1439.59" cy="1158.77" r="11.3637" fill="black"/>
<circle cx="1528.59" cy="1158.77" r="11.3637" fill="black"/>
<circle cx="1617.6" cy="1158.77" r="11.3637" fill="black"/>
<circle cx="1706.6" cy="1158.77" r="11.3637" fill="black"/>
<circle cx="1795.61" cy="1158.77" r="11.3637" fill="black"/>
<circle cx="1884.61" cy="1158.77" r="11.3637" fill="black"/>
<circle cx="1973.62" cy="1158.77" r="11.3637" fill="black"/>
<circle cx="1172.57" cy="1469.59" r="11.3637" fill="black"/>
<circle cx="1261.58" cy="1469.59" r="11.3637" fill="black"/>
<circle cx="1350.58" cy="1469.59" r="11.3637" fill="black"/>
<circle cx="1439.59" cy="1469.59" r="11.3637" fill="black"/>
<circle cx="1528.59" cy="1469.59" r="11.3637" fill="black"/>
<circle cx="1617.6" cy="1469.59" r="11.3637" fill="black"/>
<circle cx="1706.6" cy="1469.59" r="11.3637" fill="black"/>
<circle cx="1795.61" cy="1469.59" r="11.3637" fill="black"/>
<circle cx="1884.61" cy="1469.59" r="11.3637" fill="black"/>
<circle cx="1973.62" cy="1469.59" r="11.3637" fill="black"/>
<circle cx="1172.57" cy="1573.2" r="11.3637" fill="black"/>
<circle cx="1261.58" cy="1573.2" r="11.3637" fill="black"/>
<circle cx="1350.58" cy="1573.2" r="11.3637" fill="black"/>
<circle cx="1439.59" cy="1573.2" r="11.3637" fill="black"/>
<circle cx="1528.59" cy="1573.2" r="11.3637" fill="black"/>
<circle cx="1617.6" cy="1573.2" r="11.3637" fill="black"/>
<circle cx="1706.6" cy="1573.2" r="11.3637" fill="black"/>
<circle cx="1795.61" cy="1573.2" r="11.3637" fill="black"/>
<circle cx="1884.61" cy="1573.2" r="11.3637" fill="black"/>
<circle cx="1973.62" cy="1573.2" r="11.3637" fill="black"/>
<circle cx="2062.63" cy="1884.02" r="11.3637" fill="black"/>
<circle cx="2062.63" cy="1780.41" r="11.3637" fill="black"/>
<circle cx="2062.63" cy="1676.8" r="11.3637" fill="black"/>
<circle cx="2062.63" cy="1987.62" r="11.3637" fill="black"/>
<circle cx="2062.63" cy="2091.23" r="11.3637" fill="black"/>
<circle cx="2062.63" cy="1365.98" r="11.3637" fill="black"/>
<circle cx="2062.63" cy="1262.38" r="11.3637" fill="black"/>
<circle cx="2062.63" cy="1158.77" r="11.3637" fill="black"/>
<circle cx="2062.63" cy="1469.59" r="11.3637" fill="black"/>
<circle cx="2062.63" cy="1573.2" r="11.3637" fill="black"/>
<circle cx="2151.63" cy="1884.02" r="11.3637" fill="black"/>
<circle cx="2151.63" cy="1780.41" r="11.3637" fill="black"/>
<circle cx="2151.63" cy="1676.8" r="11.3637" fill="black"/>
<circle cx="2151.63" cy="1987.62" r="11.3637" fill="black"/>
<circle cx="2151.63" cy="2091.23" r="11.3637" fill="black"/>
<circle cx="2151.63" cy="1365.98" r="11.3637" fill="black"/>
<circle cx="2151.63" cy="1262.38" r="11.3637" fill="black"/>
<circle cx="2151.63" cy="1158.77" r="11.3637" fill="black"/>
<circle cx="2151.63" cy="1469.59" r="11.3637" fill="black"/>
<circle cx="2151.63" cy="1573.2" r="11.3637" fill="black"/>
<circle cx="2240.64" cy="1884.02" r="11.3637" fill="black"/>
<circle cx="2240.64" cy="1780.41" r="11.3637" fill="black"/>
<circle cx="2240.64" cy="1676.8" r="11.3637" fill="black"/>
<circle cx="2240.64" cy="1987.62" r="11.3637" fill="black"/>
<circle cx="2240.64" cy="2091.23" r="11.3637" fill="black"/>
<circle cx="2240.64" cy="1365.98" r="11.3637" fill="black"/>
<circle cx="2240.64" cy="1262.38" r="11.3637" fill="black"/>
<circle cx="2240.64" cy="1158.77" r="11.3637" fill="black"/>
<circle cx="2240.64" cy="1469.59" r="11.3637" fill="black"/>
<circle cx="2240.64" cy="1573.2" r="11.3637" fill="black"/>
<circle cx="15.3637" cy="853.61" r="11.3637" fill="black"/>
<circle cx="104.369" cy="853.61" r="11.3637" fill="black"/>
<circle cx="193.374" cy="853.61" r="11.3637" fill="black"/>
<circle cx="282.38" cy="853.61" r="11.3637" fill="black"/>
<circle cx="371.385" cy="853.61" r="11.3637" fill="black"/>
<circle cx="460.39" cy="853.61" r="11.3637" fill="black"/>
<circle cx="549.395" cy="853.61" r="11.3637" fill="black"/>
<circle cx="638.401" cy="853.61" r="11.3637" fill="black"/>
<circle cx="727.406" cy="853.61" r="11.3637" fill="black"/>
<circle cx="816.411" cy="853.61" r="11.3637" fill="black"/>
<circle cx="15.3637" cy="750.004" r="11.3637" fill="black"/>
<circle cx="104.369" cy="750.004" r="11.3637" fill="black"/>
<circle cx="193.374" cy="750.004" r="11.3637" fill="black"/>
<circle cx="282.38" cy="750.004" r="11.3637" fill="black"/>
<circle cx="371.385" cy="750.004" r="11.3637" fill="black"/>
<circle cx="460.39" cy="750.004" r="11.3637" fill="black"/>
<circle cx="549.395" cy="750.004" r="11.3637" fill="black"/>
<circle cx="638.401" cy="750.004" r="11.3637" fill="black"/>
<circle cx="727.406" cy="750.004" r="11.3637" fill="black"/>
<circle cx="816.411" cy="750.004" r="11.3637" fill="black"/>
<circle cx="15.3637" cy="646.397" r="11.3637" fill="black"/>
<circle cx="104.369" cy="646.397" r="11.3637" fill="black"/>
<circle cx="193.374" cy="646.397" r="11.3637" fill="black"/>
<circle cx="282.38" cy="646.397" r="11.3637" fill="black"/>
<circle cx="371.385" cy="646.397" r="11.3637" fill="black"/>
<circle cx="460.39" cy="646.397" r="11.3637" fill="black"/>
<circle cx="549.395" cy="646.397" r="11.3637" fill="black"/>
<circle cx="638.401" cy="646.397" r="11.3637" fill="black"/>
<circle cx="727.406" cy="646.397" r="11.3637" fill="black"/>
<circle cx="816.411" cy="646.397" r="11.3637" fill="black"/>
<circle cx="15.3637" cy="957.217" r="11.3637" fill="black"/>
<circle cx="104.369" cy="957.217" r="11.3637" fill="black"/>
<circle cx="193.374" cy="957.217" r="11.3637" fill="black"/>
<circle cx="282.38" cy="957.217" r="11.3637" fill="black"/>
<circle cx="371.385" cy="957.217" r="11.3637" fill="black"/>
<circle cx="460.39" cy="957.217" r="11.3637" fill="black"/>
<circle cx="549.395" cy="957.217" r="11.3637" fill="black"/>
<circle cx="638.401" cy="957.217" r="11.3637" fill="black"/>
<circle cx="727.406" cy="957.217" r="11.3637" fill="black"/>
<circle cx="816.411" cy="957.217" r="11.3637" fill="black"/>
<circle cx="15.3637" cy="1060.82" r="11.3637" fill="black"/>
<circle cx="104.369" cy="1060.82" r="11.3637" fill="black"/>
<circle cx="193.374" cy="1060.82" r="11.3637" fill="black"/>
<circle cx="282.38" cy="1060.82" r="11.3637" fill="black"/>
<circle cx="371.385" cy="1060.82" r="11.3637" fill="black"/>
<circle cx="460.39" cy="1060.82" r="11.3637" fill="black"/>
<circle cx="549.395" cy="1060.82" r="11.3637" fill="black"/>
<circle cx="638.401" cy="1060.82" r="11.3637" fill="black"/>
<circle cx="727.406" cy="1060.82" r="11.3637" fill="black"/>
<circle cx="816.411" cy="1060.82" r="11.3637" fill="black"/>
<circle cx="15.3637" cy="335.577" r="11.3637" fill="black"/>
<circle cx="104.369" cy="335.577" r="11.3637" fill="black"/>
<circle cx="193.374" cy="335.577" r="11.3637" fill="black"/>
<circle cx="282.38" cy="335.577" r="11.3637" fill="black"/>
<circle cx="371.385" cy="335.577" r="11.3637" fill="black"/>
<circle cx="460.39" cy="335.577" r="11.3637" fill="black"/>
<circle cx="549.395" cy="335.577" r="11.3637" fill="black"/>
<circle cx="638.401" cy="335.577" r="11.3637" fill="black"/>
<circle cx="727.406" cy="335.577" r="11.3637" fill="black"/>
<circle cx="816.411" cy="335.577" r="11.3637" fill="black"/>
<circle cx="15.3637" cy="231.97" r="11.3637" fill="black"/>
<circle cx="104.369" cy="231.97" r="11.3637" fill="black"/>
<circle cx="193.374" cy="231.97" r="11.3637" fill="black"/>
<circle cx="282.38" cy="231.97" r="11.3637" fill="black"/>
<circle cx="371.385" cy="231.97" r="11.3637" fill="black"/>
<circle cx="460.39" cy="231.97" r="11.3637" fill="black"/>
<circle cx="549.395" cy="231.97" r="11.3637" fill="black"/>
<circle cx="638.401" cy="231.97" r="11.3637" fill="black"/>
<circle cx="727.406" cy="231.97" r="11.3637" fill="black"/>
<circle cx="816.411" cy="231.97" r="11.3637" fill="black"/>
<circle cx="15.3637" cy="128.364" r="11.3637" fill="black"/>
<circle cx="104.369" cy="128.364" r="11.3637" fill="black"/>
<circle cx="193.374" cy="128.364" r="11.3637" fill="black"/>
<circle cx="282.38" cy="128.364" r="11.3637" fill="black"/>
<circle cx="371.385" cy="128.364" r="11.3637" fill="black"/>
<circle cx="460.39" cy="128.364" r="11.3637" fill="black"/>
<circle cx="549.395" cy="128.364" r="11.3637" fill="black"/>
<circle cx="638.401" cy="128.364" r="11.3637" fill="black"/>
<circle cx="727.406" cy="128.364" r="11.3637" fill="black"/>
<circle cx="816.411" cy="128.364" r="11.3637" fill="black"/>
<circle cx="15.3637" cy="439.184" r="11.3637" fill="black"/>
<circle cx="104.369" cy="439.184" r="11.3637" fill="black"/>
<circle cx="193.374" cy="439.184" r="11.3637" fill="black"/>
<circle cx="282.38" cy="439.184" r="11.3637" fill="black"/>
<circle cx="371.385" cy="439.184" r="11.3637" fill="black"/>
<circle cx="460.39" cy="439.184" r="11.3637" fill="black"/>
<circle cx="549.395" cy="439.184" r="11.3637" fill="black"/>
<circle cx="638.401" cy="439.184" r="11.3637" fill="black"/>
<circle cx="727.406" cy="439.184" r="11.3637" fill="black"/>
<circle cx="816.411" cy="439.184" r="11.3637" fill="black"/>
<circle cx="15.3637" cy="542.79" r="11.3637" fill="black"/>
<circle cx="104.369" cy="542.79" r="11.3637" fill="black"/>
<circle cx="193.374" cy="542.79" r="11.3637" fill="black"/>
<circle cx="282.38" cy="542.79" r="11.3637" fill="black"/>
<circle cx="371.385" cy="542.79" r="11.3637" fill="black"/>
<circle cx="460.39" cy="542.79" r="11.3637" fill="black"/>
<circle cx="549.395" cy="542.79" r="11.3637" fill="black"/>
<circle cx="638.401" cy="542.79" r="11.3637" fill="black"/>
<circle cx="727.406" cy="542.79" r="11.3637" fill="black"/>
<circle cx="816.411" cy="542.79" r="11.3637" fill="black"/>
<circle cx="905.416" cy="853.61" r="11.3637" fill="black"/>
<circle cx="905.416" cy="750.004" r="11.3637" fill="black"/>
<circle cx="905.416" cy="646.397" r="11.3637" fill="black"/>
<circle cx="905.416" cy="957.217" r="11.3637" fill="black"/>
<circle cx="905.416" cy="1060.82" r="11.3637" fill="black"/>
<circle cx="905.416" cy="335.577" r="11.3637" fill="black"/>
<circle cx="905.416" cy="231.97" r="11.3637" fill="black"/>
<circle cx="905.416" cy="128.364" r="11.3637" fill="black"/>
<circle cx="905.416" cy="439.184" r="11.3637" fill="black"/>
<circle cx="905.416" cy="542.79" r="11.3637" fill="black"/>
<circle cx="994.422" cy="853.61" r="11.3637" fill="black"/>
<circle cx="994.422" cy="750.004" r="11.3637" fill="black"/>
<circle cx="994.422" cy="646.397" r="11.3637" fill="black"/>
<circle cx="994.422" cy="957.217" r="11.3637" fill="black"/>
<circle cx="994.422" cy="1060.82" r="11.3637" fill="black"/>
<circle cx="994.422" cy="335.577" r="11.3637" fill="black"/>
<circle cx="994.422" cy="231.97" r="11.3637" fill="black"/>
<circle cx="994.422" cy="128.364" r="11.3637" fill="black"/>
<circle cx="994.422" cy="439.184" r="11.3637" fill="black"/>
<circle cx="994.422" cy="542.79" r="11.3637" fill="black"/>
<circle cx="1083.43" cy="853.61" r="11.3637" fill="black"/>
<circle cx="1083.43" cy="750.004" r="11.3637" fill="black"/>
<circle cx="1083.43" cy="646.397" r="11.3637" fill="black"/>
<circle cx="1083.43" cy="957.217" r="11.3637" fill="black"/>
<circle cx="1083.43" cy="1060.82" r="11.3637" fill="black"/>
<circle cx="1083.43" cy="335.577" r="11.3637" fill="black"/>
<circle cx="1083.43" cy="231.97" r="11.3637" fill="black"/>
<circle cx="1083.43" cy="128.364" r="11.3637" fill="black"/>
<circle cx="1083.43" cy="439.184" r="11.3637" fill="black"/>
<circle cx="1083.43" cy="542.79" r="11.3637" fill="black"/>
<circle cx="1172.57" cy="853.61" r="11.3637" fill="black"/>
<circle cx="1261.58" cy="853.61" r="11.3637" fill="black"/>
<circle cx="1350.58" cy="853.61" r="11.3637" fill="black"/>
<circle cx="1439.59" cy="853.61" r="11.3637" fill="black"/>
<circle cx="1528.59" cy="853.61" r="11.3637" fill="black"/>
<circle cx="1617.6" cy="853.61" r="11.3637" fill="black"/>
<circle cx="1706.6" cy="853.61" r="11.3637" fill="black"/>
<circle cx="1795.61" cy="853.61" r="11.3637" fill="black"/>
<circle cx="1884.61" cy="853.61" r="11.3637" fill="black"/>
<circle cx="1973.62" cy="853.61" r="11.3637" fill="black"/>
<circle cx="1172.57" cy="750.004" r="11.3637" fill="black"/>
<circle cx="1261.58" cy="750.004" r="11.3637" fill="black"/>
<circle cx="1350.58" cy="750.004" r="11.3637" fill="black"/>
<circle cx="1439.59" cy="750.004" r="11.3637" fill="black"/>
<circle cx="1528.59" cy="750.004" r="11.3637" fill="black"/>
<circle cx="1617.6" cy="750.004" r="11.3637" fill="black"/>
<circle cx="1706.6" cy="750.004" r="11.3637" fill="black"/>
<circle cx="1795.61" cy="750.004" r="11.3637" fill="black"/>
<circle cx="1884.61" cy="750.004" r="11.3637" fill="black"/>
<circle cx="1973.62" cy="750.004" r="11.3637" fill="black"/>
<circle cx="1172.57" cy="646.397" r="11.3637" fill="black"/>
<circle cx="1261.58" cy="646.397" r="11.3637" fill="black"/>
<circle cx="1350.58" cy="646.397" r="11.3637" fill="black"/>
<circle cx="1439.59" cy="646.397" r="11.3637" fill="black"/>
<circle cx="1528.59" cy="646.397" r="11.3637" fill="black"/>
<circle cx="1617.6" cy="646.397" r="11.3637" fill="black"/>
<circle cx="1706.6" cy="646.397" r="11.3637" fill="black"/>
<circle cx="1795.61" cy="646.397" r="11.3637" fill="black"/>
<circle cx="1884.61" cy="646.397" r="11.3637" fill="black"/>
<circle cx="1973.62" cy="646.397" r="11.3637" fill="black"/>
<circle cx="1172.57" cy="957.217" r="11.3637" fill="black"/>
<circle cx="1261.58" cy="957.217" r="11.3637" fill="black"/>
<circle cx="1350.58" cy="957.217" r="11.3637" fill="black"/>
<circle cx="1439.59" cy="957.217" r="11.3637" fill="black"/>
<circle cx="1528.59" cy="957.217" r="11.3637" fill="black"/>
<circle cx="1617.6" cy="957.217" r="11.3637" fill="black"/>
<circle cx="1706.6" cy="957.217" r="11.3637" fill="black"/>
<circle cx="1795.61" cy="957.217" r="11.3637" fill="black"/>
<circle cx="1884.61" cy="957.217" r="11.3637" fill="black"/>
<circle cx="1973.62" cy="957.217" r="11.3637" fill="black"/>
<circle cx="1172.57" cy="1060.82" r="11.3637" fill="black"/>
<circle cx="1261.58" cy="1060.82" r="11.3637" fill="black"/>
<circle cx="1350.58" cy="1060.82" r="11.3637" fill="black"/>
<circle cx="1439.59" cy="1060.82" r="11.3637" fill="black"/>
<circle cx="1528.59" cy="1060.82" r="11.3637" fill="black"/>
<circle cx="1617.6" cy="1060.82" r="11.3637" fill="black"/>
<circle cx="1706.6" cy="1060.82" r="11.3637" fill="black"/>
<circle cx="1795.61" cy="1060.82" r="11.3637" fill="black"/>
<circle cx="1884.61" cy="1060.82" r="11.3637" fill="black"/>
<circle cx="1973.62" cy="1060.82" r="11.3637" fill="black"/>
<circle cx="1172.57" cy="335.577" r="11.3637" fill="black"/>
<circle cx="1261.58" cy="335.577" r="11.3637" fill="black"/>
<circle cx="1350.58" cy="335.577" r="11.3637" fill="black"/>
<circle cx="1439.59" cy="335.577" r="11.3637" fill="black"/>
<circle cx="1528.59" cy="335.577" r="11.3637" fill="black"/>
<circle cx="1617.6" cy="335.577" r="11.3637" fill="black"/>
<circle cx="1706.6" cy="335.577" r="11.3637" fill="black"/>
<circle cx="1795.61" cy="335.577" r="11.3637" fill="black"/>
<circle cx="1884.61" cy="335.577" r="11.3637" fill="black"/>
<circle cx="1973.62" cy="335.577" r="11.3637" fill="black"/>
<circle cx="1172.57" cy="231.97" r="11.3637" fill="black"/>
<circle cx="1261.58" cy="231.97" r="11.3637" fill="black"/>
<circle cx="1350.58" cy="231.97" r="11.3637" fill="black"/>
<circle cx="1439.59" cy="231.97" r="11.3637" fill="black"/>
<circle cx="1528.59" cy="231.97" r="11.3637" fill="black"/>
<circle cx="1617.6" cy="231.97" r="11.3637" fill="black"/>
<circle cx="1706.6" cy="231.97" r="11.3637" fill="black"/>
<circle cx="1795.61" cy="231.97" r="11.3637" fill="black"/>
<circle cx="1884.61" cy="231.97" r="11.3637" fill="black"/>
<circle cx="1973.62" cy="231.97" r="11.3637" fill="black"/>
<circle cx="1172.57" cy="128.364" r="11.3637" fill="black"/>
<circle cx="1261.58" cy="128.364" r="11.3637" fill="black"/>
<circle cx="1350.58" cy="128.364" r="11.3637" fill="black"/>
<circle cx="1439.59" cy="128.364" r="11.3637" fill="black"/>
<circle cx="1528.59" cy="128.364" r="11.3637" fill="black"/>
<circle cx="1617.6" cy="128.364" r="11.3637" fill="black"/>
<circle cx="1706.6" cy="128.364" r="11.3637" fill="black"/>
<circle cx="1795.61" cy="128.364" r="11.3637" fill="black"/>
<circle cx="1884.61" cy="128.364" r="11.3637" fill="black"/>
<circle cx="1973.62" cy="128.364" r="11.3637" fill="black"/>
<circle cx="1172.57" cy="439.184" r="11.3637" fill="black"/>
<circle cx="1261.58" cy="439.184" r="11.3637" fill="black"/>
<circle cx="1350.58" cy="439.184" r="11.3637" fill="black"/>
<circle cx="1439.59" cy="439.184" r="11.3637" fill="black"/>
<circle cx="1528.59" cy="439.184" r="11.3637" fill="black"/>
<circle cx="1617.6" cy="439.184" r="11.3637" fill="black"/>
<circle cx="1706.6" cy="439.184" r="11.3637" fill="black"/>
<circle cx="1795.61" cy="439.184" r="11.3637" fill="black"/>
<circle cx="1884.61" cy="439.184" r="11.3637" fill="black"/>
<circle cx="1973.62" cy="439.184" r="11.3637" fill="black"/>
<circle cx="1172.57" cy="542.79" r="11.3637" fill="black"/>
<circle cx="1261.58" cy="542.79" r="11.3637" fill="black"/>
<circle cx="1350.58" cy="542.79" r="11.3637" fill="black"/>
<circle cx="1439.59" cy="542.79" r="11.3637" fill="black"/>
<circle cx="1528.59" cy="542.79" r="11.3637" fill="black"/>
<circle cx="1617.6" cy="542.79" r="11.3637" fill="black"/>
<circle cx="1706.6" cy="542.79" r="11.3637" fill="black"/>
<circle cx="1795.61" cy="542.79" r="11.3637" fill="black"/>
<circle cx="1884.61" cy="542.79" r="11.3637" fill="black"/>
<circle cx="1973.62" cy="542.79" r="11.3637" fill="black"/>
<circle cx="2062.63" cy="853.61" r="11.3637" fill="black"/>
<circle cx="2062.63" cy="750.004" r="11.3637" fill="black"/>
<circle cx="2062.63" cy="646.397" r="11.3637" fill="black"/>
<circle cx="2062.63" cy="957.217" r="11.3637" fill="black"/>
<circle cx="2062.63" cy="1060.82" r="11.3637" fill="black"/>
<circle cx="2062.63" cy="335.577" r="11.3637" fill="black"/>
<circle cx="2062.63" cy="231.97" r="11.3637" fill="black"/>
<circle cx="2062.63" cy="128.364" r="11.3637" fill="black"/>
<circle cx="2062.63" cy="439.184" r="11.3637" fill="black"/>
<circle cx="2062.63" cy="542.79" r="11.3637" fill="black"/>
<circle cx="2151.63" cy="853.61" r="11.3637" fill="black"/>
<circle cx="2151.63" cy="750.004" r="11.3637" fill="black"/>
<circle cx="2151.63" cy="646.397" r="11.3637" fill="black"/>
<circle cx="2151.63" cy="957.217" r="11.3637" fill="black"/>
<circle cx="2151.63" cy="1060.82" r="11.3637" fill="black"/>
<circle cx="2151.63" cy="335.577" r="11.3637" fill="black"/>
<circle cx="2151.63" cy="231.97" r="11.3637" fill="black"/>
<circle cx="2151.63" cy="128.364" r="11.3637" fill="black"/>
<circle cx="2151.63" cy="439.184" r="11.3637" fill="black"/>
<circle cx="2151.63" cy="542.79" r="11.3637" fill="black"/>
<circle cx="2240.64" cy="853.61" r="11.3637" fill="black"/>
<circle cx="2240.64" cy="750.004" r="11.3637" fill="black"/>
<circle cx="2240.64" cy="646.397" r="11.3637" fill="black"/>
<circle cx="2240.64" cy="957.217" r="11.3637" fill="black"/>
<circle cx="2240.64" cy="1060.82" r="11.3637" fill="black"/>
<circle cx="2240.64" cy="335.577" r="11.3637" fill="black"/>
<circle cx="2240.64" cy="231.97" r="11.3637" fill="black"/>
<circle cx="2240.64" cy="128.364" r="11.3637" fill="black"/>
<circle cx="15.3637" cy="32.3637" r="11.3637" fill="black"/>
<circle cx="104.369" cy="32.3637" r="11.3637" fill="black"/>
<circle cx="193.374" cy="32.3637" r="11.3637" fill="black"/>
<circle cx="282.38" cy="32.3637" r="11.3637" fill="black"/>
<circle cx="371.385" cy="32.3637" r="11.3637" fill="black"/>
<circle cx="460.39" cy="32.3637" r="11.3637" fill="black"/>
<circle cx="549.395" cy="32.3637" r="11.3637" fill="black"/>
<circle cx="638.401" cy="32.3637" r="11.3637" fill="black"/>
<circle cx="727.406" cy="32.3637" r="11.3637" fill="black"/>
<circle cx="816.411" cy="32.3637" r="11.3637" fill="black"/>
<circle cx="905.416" cy="32.3637" r="11.3637" fill="black"/>
<circle cx="994.422" cy="32.3637" r="11.3637" fill="black"/>
<circle cx="1083.43" cy="32.3637" r="11.3637" fill="black"/>
<circle cx="1172.57" cy="32.3637" r="11.3637" fill="black"/>
<circle cx="1261.58" cy="32.3637" r="11.3637" fill="black"/>
<circle cx="1350.58" cy="32.3637" r="11.3637" fill="black"/>
<circle cx="1439.59" cy="32.3637" r="11.3637" fill="black"/>
<circle cx="1528.59" cy="32.3637" r="11.3637" fill="black"/>
<circle cx="1617.6" cy="32.3637" r="11.3637" fill="black"/>
<circle cx="1706.6" cy="32.3637" r="11.3637" fill="black"/>
<circle cx="1795.61" cy="32.3637" r="11.3637" fill="black"/>
<circle cx="1884.61" cy="32.3637" r="11.3637" fill="black"/>
<circle cx="1973.62" cy="32.3637" r="11.3637" fill="black"/>
<circle cx="2062.63" cy="32.3637" r="11.3637" fill="black"/>
<circle cx="2151.63" cy="32.3637" r="11.3637" fill="black"/>
<circle cx="2240.64" cy="32.3637" r="11.3637" fill="black"/>
<circle cx="2240.64" cy="439.184" r="11.3637" fill="black"/>
<circle cx="2240.64" cy="542.79" r="11.3637" fill="black"/>
<path d="M0 1909V2122.37H400.955C176.468 2107.51 40.1154 1973.93 0 1909Z" fill="black" stroke="black" stroke-width="1.17238"/>
<path d="M2251.3 1910V2123.37H1848C2073.8 2108.51 2210.95 1974.93 2251.3 1910Z" fill="black" stroke="black" stroke-width="1.17238"/>
<path d="M2257.13 212.374L2257.13 -0.999802L1855 -0.999836C2080.14 13.8644 2216.9 147.443 2257.13 212.374Z" fill="black" stroke="black" stroke-width="1.17238"/>
<path d="M0 213.374L1.90203e-05 0.00012207L402.128 0.000156548C176.984 14.8644 40.2327 148.443 0 213.374Z" fill="black" stroke="black" stroke-width="1.17238"/>
<path d="M2311.67 1170.24C2136.57 1416.38 1818.09 1815.9 1939.52 2089" stroke="black" stroke-width="8"/>
<path d="M56.5186 2052.5C266.384 2139.1 685.6 2087.29 795.51 1831.09C932.899 1510.83 1271.59 1594.04 1399.42 1677.25C1527.25 1760.45 1882.67 2198.63 2285.87 2015.46" stroke="black" stroke-width="8"/>
<path d="M25.0186 1690.5C184.095 1754.07 493.073 1777.91 588.519 2172" stroke="black" stroke-width="8"/>
<path d="M22 1075.27C158.139 940.043 504.695 702.781 801.812 835.574C1173.21 1001.57 1258 497.217 1272.92 356.177C1287.25 220.747 1154.57 54.3422 1062.59 -50" stroke="black" stroke-width="8"/>
<path d="M42.5186 10.5C179.477 54.6347 445.551 91.9319 489.027 265.915C543.373 483.393 690.284 672.713 824.654 745.206C959.024 817.698 1233.14 848.253 1387.81 1060.94C1542.49 1273.62 2124.95 511.517 2300.53 612.768" stroke="black" stroke-width="8"/>
</g>
<defs>
<clipPath id="clip0_198_49">
<rect width="2257" height="2123" fill="white"/>
</clipPath>
</defs>
</svg>
